<svg xmlns="http://www.w3.org/2000/svg" id="pump_ico_img__blender" fill="none" class="engine-status" viewBox="0 0 46 31"><path id="pump_ico_img___path1" fill="#000" d="m46 6.369-4.068-.035V31H46V6.369Z"/><path id="pump_ico_img_path2" fill="#000" d="m35.986 12.115-4.88-5.799h-6.254V2.852h6.49V0H15.65v2.852h6.49v3.464h-6.51l-3.193 3.932H6.026v6.744H2.712v-5.711H0v14.493h2.712v-5.93h3.314v7.132h6.42l3.274 3.645 15.385-.01 4.924-5.751h3.191V12.115h-3.234ZM25.002 25.478H22.29v-3.185h2.712v3.185Zm0-5.837H22.29v-8.656h2.712v8.656Z"/><path id="pump_ico_img___path3" fill="#000" d="M21.619 10.333h5.896v16.533h-5.896V10.333Z"/></svg>