<svg width="18" height="12" viewBox="0 0 18 12" fill="none" xmlns="http://www.w3.org/2000/svg">
<path d="M18 2.46536L16.4083 2.45174V12H18V2.46536Z" fill="#E4C84C"/>
<path d="M14.0816 4.68977L12.172 2.44506H9.72475V1.10385H12.2641V0H6.12424V1.10385H8.66359V2.44506H6.11599L4.86669 3.96709H2.35797V6.57761H1.06116V4.36679H0V9.97707H1.06116V7.68146H2.35797V10.4423H4.86984L6.15133 11.8533L12.1714 11.8495L14.0982 9.62321H15.3471V4.68974L14.0816 4.68977ZM9.78347 9.86256H8.72231V8.62949H9.78347V9.86256ZM9.78347 7.60283H8.72231V4.25228H9.78347V7.60283Z" fill="#E4C84C"/>
<path d="M8.45958 3.99995H10.7667V10.3999H8.45958V3.99995Z" fill="#E4C84C"/>
</svg>