<svg xmlns="http://www.w3.org/2000/svg" fill="none" viewBox="0 0 1180 728"><path fill="#818F99" stroke="#818F99" d="M1147 721.643V712l7.5 4.821L1162 712v9.643l-7.5-4.822-7.5 4.822Z"/><path stroke="#818F99" d="M1047 722.179V712l15 10.179V712l-15 10.179Z"/><text xml:space="preserve" fill="#E8EBED" font-family="Barlow" font-size="14" letter-spacing="0em" style="white-space:pre"><tspan x="1005" y="723.1">Open</tspan></text><text xml:space="preserve" fill="#E8EBED" font-family="Barlow" font-size="14" letter-spacing="0em" style="white-space:pre"><tspan x="1094" y="722.1">Closed</tspan></text><path fill="#818F99" fill-rule="evenodd" d="M318.403 481.515a1.968 1.968 0 0 1-1.32-.512 1.818 1.818 0 0 1-.591-1.244 1.803 1.803 0 0 1 .461-1.293 1.955 1.955 0 0 1 1.261-.634l3.51-.336c-7.809-4.731-18.277-3.833-25.076 2.695-3.008 2.881-4.992 6.6-5.671 10.627a18.705 18.705 0 0 0 1.891 11.803 1.777 1.777 0 0 1-.082 1.797c-.172.268-.413.49-.699.643a1.99 1.99 0 0 1-.937.235h-.001c-.357 0-.707-.095-1.011-.275a1.88 1.88 0 0 1-.709-.745 22.261 22.261 0 0 1-2.25-14.048c.808-4.793 3.17-9.219 6.75-12.648 8.063-7.744 20.472-8.832 29.756-3.263l-.61-2.936a1.791 1.791 0 0 1 .297-1.374 1.932 1.932 0 0 1 1.217-.776 1.989 1.989 0 0 1 1.434.269c.423.268.718.684.823 1.16l1.633 7.87a1.79 1.79 0 0 1-.34 1.46c-.16.207-.363.38-.596.507a1.991 1.991 0 0 1-.759.232l-8.188.784-.097.001-.096.001Zm-16.67 33.751a24.867 24.867 0 0 0 9.208 1.748 24.845 24.845 0 0 0 11.724-2.922c3.584-1.919 6.597-4.686 8.753-8.039a22.44 22.44 0 0 0 3.564-11.117 22.344 22.344 0 0 0-2.529-11.376 1.905 1.905 0 0 0-1.113-.925 2 2 0 0 0-1.468.102 1.87 1.87 0 0 0-.963 1.069c-.161.465-.123.972.106 1.41a18.709 18.709 0 0 1 1.891 11.802c-.679 4.028-2.664 7.747-5.671 10.627-6.799 6.528-17.267 7.427-25.077 2.696l3.513-.336c.507-.049.974-.29 1.296-.669.323-.379.476-.866.425-1.353a1.823 1.823 0 0 0-.697-1.245 1.975 1.975 0 0 0-1.409-.408l-8.164.782a2.02 2.02 0 0 0-.783.234 1.893 1.893 0 0 0-.596.507 1.8 1.8 0 0 0-.341 1.46l1.633 7.864c.087.418.322.795.666 1.066.343.271.774.419 1.219.419.284.001.566-.059.823-.176.257-.116.485-.286.666-.497.18-.212.31-.459.379-.724a1.76 1.76 0 0 0 .021-.81l-.609-2.934a24.36 24.36 0 0 0 3.533 1.745Z" clip-rule="evenodd"/><path fill="#818F99" fill-rule="evenodd" d="M368.844 445.008v44.545h-10.516v-2.946h-2.635c.341 9.124-1.516 20.852-7.061 31.058-6.311 11.613-17.417 21.237-35.169 22.64-7.274.725-18.265-.624-27.918-7.048-9.808-6.529-17.946-18.112-19.535-37.214l-.01-.125v-.126c0-16.963 6.852-28.42 15.523-35.734 8.563-7.222 18.79-10.327 25.697-10.986l.135-.013h50.973v-4.051h10.516Zm-10.516 9.987H307.63c-5.954.596-14.939 3.348-22.397 9.638-7.383 6.227-13.378 16.002-13.412 31.034 1.473 17.329 8.719 27.17 16.906 32.618 8.348 5.557 17.969 6.736 24.196 6.109l.031-.003.032-.003c15.575-1.222 25.063-9.497 30.554-19.601 5.569-10.249 7.006-22.394 6.137-30.839l-.337-3.278h8.988v-25.675Zm640.911 119.403a1.55 1.55 0 0 0 1.031-.398c.27-.254.44-.601.46-.968.01-.367-.11-.727-.36-1.006a1.531 1.531 0 0 0-.985-.493l-2.729-.261c6.074-3.68 14.214-2.981 19.504 2.096 2.34 2.241 3.89 5.134 4.41 8.267.53 3.133.02 6.345-1.47 9.181a1.45 1.45 0 0 0-.16.707c.02.245.09.483.23.691.13.209.32.381.54.5a1.561 1.561 0 0 0 1.52-.031c.23-.14.42-.341.55-.579 1.76-3.375 2.38-7.199 1.75-10.928-.63-3.728-2.47-7.171-5.25-9.839-6.28-6.024-15.93-6.87-23.15-2.538l.474-2.284a1.385 1.385 0 0 0-.231-1.068 1.493 1.493 0 0 0-.947-.604 1.545 1.545 0 0 0-1.115.209 1.433 1.433 0 0 0-.64.902l-1.27 6.122a1.407 1.407 0 0 0 .264 1.136c.124.161.282.295.464.394.181.099.382.16.59.18l6.369.61.076.001.075.001Zm12.971 26.254a19.393 19.393 0 0 1-7.17 1.36 19.31 19.31 0 0 1-9.116-2.273 18.4 18.4 0 0 1-6.809-6.253 17.472 17.472 0 0 1-2.773-8.648 17.382 17.382 0 0 1 1.968-8.849c.178-.34.49-.599.866-.719.377-.12.787-.092 1.142.079.355.171.624.47.749.832.125.361.095.756-.083 1.096a14.551 14.551 0 0 0-1.47 9.181c.528 3.133 2.071 6.026 4.411 8.267 5.289 5.077 13.435 5.776 19.505 2.096l-2.73-.261c-.4-.038-.76-.226-1.01-.521a1.399 1.399 0 0 1 .21-2.021c.31-.241.7-.355 1.1-.317l6.34.608c.16.012.31.048.45.104.18.073.35.179.49.312s.25.292.32.466c.04.098.07.2.09.304.02.081.02.163.02.246 0 .094 0 .188-.02.28l-1.27 6.118a1.43 1.43 0 0 1-.52.829c-.27.211-.6.326-.95.326a1.534 1.534 0 0 1-1.16-.524 1.36 1.36 0 0 1-.29-.563 1.342 1.342 0 0 1-.02-.63l.47-2.282c-.87.523-1.79.978-2.74 1.357Z" clip-rule="evenodd"/><path fill="#818F99" fill-rule="evenodd" d="M960 546v34.651h8.18v-2.292h2.05c-.266 7.097 1.179 16.22 5.493 24.159 4.909 9.034 13.547 16.52 27.357 17.611 5.66.564 14.21-.485 21.72-5.483 7.63-5.078 13.96-14.088 15.19-28.947l.01-.097v-.098c0-13.195-5.33-22.107-12.08-27.797-6.66-5.618-14.61-8.033-19.98-8.546l-.11-.01h-39.65V546H960Zm8.18 7.769h39.44c4.63.464 11.62 2.604 17.42 7.497 5.74 4.844 10.41 12.447 10.43 24.14-1.14 13.48-6.78 21.135-13.15 25.373-6.49 4.322-13.98 5.24-18.82 4.752l-.02-.003-.03-.002c-12.115-.95-19.495-7.387-23.766-15.247-4.333-7.972-5.45-17.42-4.774-23.988l.262-2.55h-6.992v-19.972ZM318.403 206.444a1.963 1.963 0 0 1-1.32-.512 1.818 1.818 0 0 1-.591-1.244 1.805 1.805 0 0 1 .461-1.293 1.955 1.955 0 0 1 1.261-.634l3.51-.336c-7.809-4.731-18.277-3.833-25.076 2.695-3.008 2.881-4.992 6.6-5.671 10.627a18.704 18.704 0 0 0 1.891 11.803 1.777 1.777 0 0 1-.082 1.797 1.88 1.88 0 0 1-.699.643 1.979 1.979 0 0 1-.937.235h-.001c-.357 0-.707-.095-1.011-.275a1.874 1.874 0 0 1-.709-.745 22.26 22.26 0 0 1-2.25-14.047c.808-4.794 3.17-9.22 6.75-12.649 8.063-7.744 20.472-8.832 29.756-3.263l-.61-2.935a1.79 1.79 0 0 1 .297-1.374 1.93 1.93 0 0 1 1.217-.777 1.989 1.989 0 0 1 1.434.269c.423.268.718.685.823 1.16l1.633 7.87a1.778 1.778 0 0 1-.34 1.46c-.16.207-.363.38-.596.507a1.986 1.986 0 0 1-.758.232l-8.189.784-.097.001-.096.001Zm-16.669 33.751a24.838 24.838 0 0 0 9.208 1.747 24.817 24.817 0 0 0 11.723-2.922c3.584-1.918 6.598-4.685 8.754-8.038a22.454 22.454 0 0 0 3.564-11.118 22.329 22.329 0 0 0-2.53-11.375 1.905 1.905 0 0 0-1.113-.925 2 2 0 0 0-1.468.102c-.456.22-.802.604-.963 1.069-.161.465-.123.972.106 1.41a18.702 18.702 0 0 1 1.891 11.802c-.679 4.027-2.663 7.746-5.671 10.627-6.799 6.528-17.267 7.426-25.076 2.696l3.512-.337a1.945 1.945 0 0 0 1.296-.668c.323-.38.476-.866.425-1.354a1.83 1.83 0 0 0-.696-1.245 1.979 1.979 0 0 0-1.41-.407l-8.165.782a1.996 1.996 0 0 0-.782.233c-.233.127-.436.3-.596.507-.16.207-.272.444-.331.696a1.774 1.774 0 0 0-.01.764l1.634 7.864c.086.419.322.796.665 1.067a1.97 1.97 0 0 0 1.219.419c.284.001.566-.059.823-.176.258-.117.485-.287.666-.498.18-.211.31-.458.379-.723a1.76 1.76 0 0 0 .021-.81l-.609-2.935a24.48 24.48 0 0 0 3.534 1.746Z" clip-rule="evenodd"/><path fill="#818F99" fill-rule="evenodd" d="M368.844 169.936v44.546h-10.516v-2.947h-2.635c.341 9.124-1.516 20.853-7.061 31.058-6.311 11.614-17.417 21.237-35.169 22.64-7.274.726-18.265-.623-27.918-7.048-9.808-6.528-17.946-18.111-19.535-37.213l-.01-.126v-.125c0-16.963 6.852-28.42 15.523-35.734 8.563-7.223 18.79-10.327 25.697-10.987l.135-.013h50.973v-4.051h10.516Zm-10.516 9.988H307.63c-5.954.596-14.939 3.347-22.397 9.637-7.383 6.228-13.378 16.003-13.412 31.034 1.473 17.329 8.719 27.17 16.906 32.619 8.348 5.556 17.969 6.736 24.196 6.108l.031-.003.032-.002c15.575-1.222 25.063-9.497 30.554-19.601 5.569-10.25 7.006-22.395 6.137-30.839l-.337-3.278h8.988v-25.675Z" clip-rule="evenodd"/><path stroke="#818F99" stroke-width="2" d="M153 203h-16l16-25.379h-16L153 203Z"/><path fill="#818F99" stroke="#818F99" stroke-width="2" d="M229 212.028v16.315l-14-8.158-14 8.158v-16.315l14 8.157 14-8.157Zm225-22.713v16l-14-8-14 8v-16l14 8 14-8ZM75 212.028v16.315l-14-8.158-14 8.158v-16.315l14 8.157 14-8.157Zm573 56.985h-16l8-14.276-8-14.276h16l-8 14.276 8 14.276Z"/><path stroke="#818F99" stroke-width="2" d="M102 203H86l16-25.379H86L102 203Zm26-45h-16l16-28h-16l16 28Zm-92 45H20l16-25.379H20L36 203Z"/><path fill="#818F99" d="M28.358 175.012a1 1 0 0 0 1.415 0l6.363-6.364a1 1 0 1 0-1.414-1.414l-5.657 5.657-5.656-5.657a1 1 0 1 0-1.415 1.414l6.364 6.364ZM28.065 155v19.305h2V155h-2Zm65.931 20.012a1 1 0 0 0 1.414 0l6.364-6.364a.999.999 0 1 0-1.414-1.414l-5.657 5.657-5.657-5.657a1 1 0 1 0-1.414 1.414l6.364 6.364ZM93.703 155v19.305h2V155h-2Zm25.872-27.394a.999.999 0 0 0 1.414 0l6.364-6.364a.999.999 0 1 0-1.414-1.414l-5.657 5.657-5.657-5.657a1 1 0 0 0-1.414 1.414l6.364 6.364Zm-.293-20.012v19.305h2v-19.305h-2Zm25.872 67.418a.999.999 0 0 0 1.414 0l6.364-6.364a.999.999 0 1 0-1.414-1.414l-5.657 5.657-5.657-5.657a.999.999 0 1 0-1.414 1.414l6.364 6.364ZM144.861 155v19.305h2V155h-2Zm1016.849-25.707a1.006 1.006 0 0 0-1.42 0l-6.36 6.364a1 1 0 0 0 0 1.414.994.994 0 0 0 1.41 0l5.66-5.657 5.66 5.657a.994.994 0 0 0 1.41 0 1 1 0 0 0 0-1.414l-6.36-6.364ZM1160 130v20h2v-20h-2Zm-35.29-.707a1.006 1.006 0 0 0-1.42 0l-6.36 6.364a1 1 0 0 0 0 1.414.994.994 0 0 0 1.41 0l5.66-5.657 5.66 5.657a.994.994 0 0 0 1.41 0 1 1 0 0 0 0-1.414l-6.36-6.364ZM1123 130v20h2v-20h-2Z"/><path stroke="#818F99" stroke-width="2" d="M1161 180v17m-37-17v17M29.065 203.603v16.409m65.638-16.409v16.409m25.579-61.776v61.776m25.579-15.927v16.409"/><path fill="#808F99" d="M471.707 295.707a.999.999 0 0 0 0-1.414l-6.364-6.364a.999.999 0 1 0-1.414 1.414l5.657 5.657-5.657 5.657a.999.999 0 1 0 1.414 1.414l6.364-6.364ZM471 294h-20v2h20v-2Zm217.293 48.707a.999.999 0 0 0 1.414 0l6.364-6.364a.999.999 0 1 0-1.414-1.414L689 340.586l-5.657-5.657a.999.999 0 1 0-1.414 1.414l6.364 6.364ZM690 342v-25h-2v25h2Zm106.707 91.293a.999.999 0 0 0-1.414 0l-6.364 6.364a.999.999 0 1 0 1.414 1.414l5.657-5.657 5.657 5.657a.999.999 0 1 0 1.414-1.414l-6.364-6.364ZM797 459v-25h-2v25h2Z"/><path stroke="#808F99" stroke-width="2" d="M689 395v-22"/><path fill="#808F99" d="M421.293 393.293a.999.999 0 0 0 0 1.414l6.364 6.364a.999.999 0 1 0 1.414-1.414L423.414 394l5.657-5.657a.999.999 0 1 0-1.414-1.414l-6.364 6.364ZM439 393h-17v2h17v-2Z"/><path stroke="#808F99" stroke-width="2" d="M689 394H439"/><path stroke="#818F99" stroke-dasharray="8 6" stroke-width="2" d="M670 432v35m-55-148v114"/><path stroke="#818F99" stroke-dasharray="8 8" stroke-width="2" d="M671 432h-56"/><path stroke="#818F99" stroke-dasharray="8 4" d="M1154.38 303H1012"/><path stroke="#808F99" stroke-width="2" d="M797 411H452"/><path fill="#808F99" d="M821.707 317.707a.999.999 0 0 0 0-1.414l-6.364-6.364a.999.999 0 1 0-1.414 1.414l5.657 5.657-5.657 5.657a.999.999 0 1 0 1.414 1.414l6.364-6.364ZM821 316H576v2h245v-2Zm230.29 263.293a1 1 0 0 0 0 1.414l6.37 6.364a.994.994 0 0 0 1.41 0 1 1 0 0 0 0-1.414l-5.66-5.657 5.66-5.657a1 1 0 0 0 0-1.414.994.994 0 0 0-1.41 0l-6.37 6.364ZM1052 581h30v-2h-30v2Z"/><path fill="#808F99" d="M821.29 562.705a1.002 1.002 0 0 0 1.415.005l6.387-6.341a1 1 0 1 0-1.409-1.419l-5.678 5.636-5.636-5.678a1 1 0 1 0-1.419 1.409l6.34 6.388Zm1.71-.701 1-273-2-.008-1 273 2 .008Zm40.291.701a1 1 0 0 0 1.414.005l6.388-6.34a1 1 0 0 0-1.409-1.42l-5.678 5.636-5.636-5.678a1 1 0 1 0-1.419 1.409l6.34 6.388Zm1.71-.701.913-245.001-2-.007-.913 245.001 2 .007Z"/><path stroke="#808F99" stroke-width="2" d="M1083 581v-96m18 160 .84-84.996m.16.996h-19m-287-90v-60m-376 55V345m-.5 220 .5-91m32-83v-95m0 116v-15"/><path fill="#808F99" d="M872.707 213.293a.999.999 0 0 0-1.414 0l-6.364 6.364a.999.999 0 1 0 1.414 1.414l5.657-5.657 5.657 5.657a.999.999 0 1 0 1.414-1.414l-6.364-6.364ZM873 234v-20h-2v20h2Z"/><path stroke="#808F99" stroke-width="2" d="M872 290v-27"/><path fill="#808F99" d="M164.293 489.707a.999.999 0 0 0 1.414 0l6.364-6.364a.999.999 0 1 0-1.414-1.414L165 487.586l-5.657-5.657a.999.999 0 1 0-1.414 1.414l6.364 6.364ZM166 489V221h-2v268h2Zm841.71-198.293a1 1 0 0 0 0-1.414l-6.37-6.364a.999.999 0 0 0-1.411 1.414l5.661 5.657-5.661 5.657a.999.999 0 0 0 1.411 1.414l6.37-6.364ZM1007 289H823v2h184v-2Zm.71 28.707a1 1 0 0 0 0-1.414l-6.37-6.364a.999.999 0 0 0-1.411 1.414l5.661 5.657-5.661 5.657a.999.999 0 0 0 1.411 1.414l6.37-6.364ZM1007 316H863v2h144v-2Zm-839.708 28.292a1 1 0 0 0 0 1.414l6.364 6.364a1 1 0 1 0 1.415-1.414l-5.657-5.657 5.657-5.657a1 1 0 0 0-1.415-1.414l-6.364 6.364ZM421 344l-253-.001v2L421 346v-2Z"/><path fill="#808F99" d="M256.707 491.707a.999.999 0 0 0 0-1.414l-6.364-6.364a.999.999 0 1 0-1.414 1.414l5.657 5.657-5.657 5.657a.999.999 0 1 0 1.414 1.414l6.364-6.364ZM256 490H17v2h239v-2Z"/><path stroke="#808F99" stroke-width="2" d="M933 564.002H419M796 470H404m758-273-753-.136M18 220.495v270.27"/><path fill="#808F99" d="M256.707 220.707a.999.999 0 0 0 0-1.414l-6.364-6.364a.999.999 0 1 0-1.414 1.414l5.657 5.657-5.657 5.657a.999.999 0 1 0 1.414 1.414l6.364-6.364ZM17 221h239v-2H17v2Z"/><path fill="#818F99" stroke="#818F99" stroke-width="2" d="M506.25 132.531h-16l8-14.276-8-14.276h16l-8 14.276 8 14.276Zm29 0h-16l8-14.276-8-14.276h16l-8 14.276 8 14.276Z"/><path fill="#808F99" d="M526.543 247.707c.391.39 1.024.39 1.415 0l6.364-6.364a1 1 0 0 0-1.415-1.414l-5.657 5.657-5.656-5.657a1 1 0 1 0-1.415 1.414l6.364 6.364Zm1.707-.707V58h-2v189h2Zm-29.294.709a1 1 0 0 1-1.414-.004l-6.348-6.381a1 1 0 0 1 1.418-1.41l5.642 5.672 5.672-5.642a.999.999 0 1 1 1.41 1.418l-6.38 6.347Zm-1.706-.712.501-188.999 2 .006-.501 188.998-2-.005ZM346.543 27.804a1 1 0 0 0 1.415 0l6.364-6.364a1 1 0 0 0-1.415-1.415l-5.657 5.657-5.656-5.656a1 1 0 0 0-1.415 1.414l6.364 6.364Zm1.707-.707V2h-2v25.096h2Zm329.293.707a1 1 0 0 0 1.414 0l6.364-6.364a1 1 0 1 0-1.414-1.415l-5.657 5.657-5.657-5.656a1 1 0 1 0-1.414 1.414l6.364 6.364Zm1.707-.707V2h-2v25.096h2Z"/><path stroke="#808F99" stroke-width="2" d="M549.25 59h-22m-29 0h-22"/><circle cx="312.409" cy="26.683" r="14.409" stroke="#818F99" stroke-width="4"/><circle cx="712.988" cy="26.683" r="14.409" stroke="#818F99" stroke-width="4"/><path stroke="#808F99" stroke-linecap="round" stroke-width="2" d="m331.231 19.444 9.653 12.887v12.21m22.683-25.097-9.653 12.887v12.21"/><path stroke="#808F99" stroke-width="2" d="M323.062 45.541h152.923v25.51H323.062z"/><path stroke="#808F99" stroke-linecap="round" stroke-width="2" d="m323.25 47 13.819 23 13.818-23 13.818 23 13.818-23 13.818 23 13.819-23 13.818 23 13.818-23 13.818 23 13.818-23 13.818 23"/><path stroke="#818F99" stroke-linecap="round" stroke-width="2" d="m694.648 19.444-9.652 12.887v12.21m-22.684-25.097 9.653 12.887v12.21"/><path stroke="#818F99" stroke-width="2" d="M702.818 45.54H549.895v25.51h152.923z"/><path stroke="#818F99" stroke-linecap="round" stroke-width="2" d="m702.25 47-13.818 23-13.818-23-13.819 23-13.818-23-13.818 23-13.818-23-13.818 23-13.818-23-13.819 23-13.818-23-13.818 23"/><path fill="#818F99" stroke="#818F99" stroke-width="2" d="M684.957 461v17.225l-14.479-8.613-14.479 8.613V461l14.479 8.612L684.957 461Z"/><path fill="#818F99" stroke="#818F99" stroke-width="3" d="M915.958 555v17.225l-14.479-8.613L887 572.225V555l14.479 8.612L915.958 555Zm44-274v17.225l-14.479-8.613L931 298.225V281l14.479 8.612L959.958 281Z"/><path fill="#818F99" stroke="#818F99" stroke-width="2" d="M628.957 309.026v16.315l-14-8.158-14 8.158v-16.315l14 8.157 14-8.157ZM173 435.243l-16-.019 8.017-14.266-7.984-14.286 16 .02-8.016 14.266L173 435.243Z"/><path fill="#818F99" d="M231 482.425v17.225l-14.479-8.612-14.479 8.612v-17.225l14.479 8.613L231 482.425Z"/><path stroke="#818F99" stroke-width="2" d="M879.892 263.528H863L879.892 234H863l16.892 29.528Z"/><path fill="#818F99" stroke="#818F99" stroke-width="3" d="M831.892 394.392H815l8.446-14.764L815 364.864h16.892l-8.446 14.764 8.446 14.764ZM697 372.393h-16l8-14-8-14h16l-8 14 8 14Z"/><path fill="#818F99" stroke="#818F99" stroke-width="2" d="M1091 537.193h-16l8-14.275-8-14.276h16l-8 14.276 8 14.275Zm-219.108-100.95H855l8.446-14.764L855 406.715h16.892l-8.446 14.764 8.446 14.764Z"/><path stroke="#818F99" stroke-width="2" d="M1169 179h-16l16-28h-16l16 28Zm-37 0h-16l16-28h-16l16 28Z"/><path fill="#818F99" fill-rule="evenodd" d="M566 339.41v-39.415h-9.305v2.607h-2.331c.302-8.073-1.342-18.451-6.249-27.481-5.584-10.276-15.41-18.792-31.118-20.033-6.437-.642-16.162.552-24.703 6.236-8.679 5.777-15.879 16.026-17.285 32.928l-.009.111v.111c0 15.009 6.063 25.147 13.735 31.619 7.577 6.391 16.626 9.138 22.738 9.721l.119.011h45.103v3.585H566Zm-9.305-8.837h-44.859c-5.269-.528-13.219-2.962-19.818-8.528-6.533-5.51-11.838-14.159-11.867-27.46 1.303-15.333 7.715-24.04 14.958-28.862 7.387-4.916 15.901-5.96 21.41-5.405l.028.003.028.002c13.781 1.081 22.176 8.403 27.035 17.344 4.928 9.069 6.199 19.815 5.43 27.287l-.298 2.9h7.953v22.719Z" clip-rule="evenodd"/><path fill="#818F99" d="M494.873 294.252c0-11.543 9.209-20.934 20.529-20.934s20.53 9.391 20.53 20.934c0 11.543-9.21 20.934-20.53 20.934s-20.529-9.391-20.529-20.934Zm20.529 19.259c1.515 0 2.987-.187 4.399-.532l-2.488-8.871a9.79 9.79 0 0 1-1.911.192 9.714 9.714 0 0 1-1.911-.193l-2.488 8.871c1.412.346 2.884.533 4.399.533Zm0-38.518c-1.515 0-2.986.187-4.399.532l2.488 8.871a9.64 9.64 0 0 1 3.822.001l2.488-8.871a18.456 18.456 0 0 0-4.399-.533Zm-7.406 12.652-6.29-6.633a19.351 19.351 0 0 0-4.408 7.762l8.785 2.24a10.077 10.077 0 0 1 1.913-3.369Zm1.175-1.17a9.84 9.84 0 0 1 2.744-1.61l-2.491-8.878a18.829 18.829 0 0 0-6.539 3.86l6.286 6.628Zm9.719-1.609a9.773 9.773 0 0 1 2.743 1.61l6.286-6.628a18.798 18.798 0 0 0-6.539-3.86l-2.49 8.878Zm3.918 2.779a10.073 10.073 0 0 1 1.913 3.368l8.785-2.24a19.356 19.356 0 0 0-4.407-7.762l-6.291 6.634Zm-7.406-1.767c-4.528 0-8.212 3.757-8.212 8.374 0 4.617 3.684 8.373 8.212 8.373s8.212-3.756 8.212-8.373c0-4.617-3.684-8.374-8.212-8.374Zm-6.231 16.15-6.286 6.629a18.795 18.795 0 0 0 6.539 3.859l2.491-8.878a9.817 9.817 0 0 1-2.744-1.61Zm-1.175-1.169a10.083 10.083 0 0 1-1.913-3.368l-8.785 2.24a19.358 19.358 0 0 0 4.408 7.762l6.29-6.634Zm14.812 0 6.291 6.633a19.344 19.344 0 0 0 4.407-7.762l-8.785-2.24a10.087 10.087 0 0 1-1.913 3.369Zm-1.175 1.169a9.814 9.814 0 0 1-2.743 1.611l2.49 8.878a18.81 18.81 0 0 0 6.539-3.859l-6.286-6.63Zm-24.737-3.921 8.792-2.242a10.087 10.087 0 0 1-.14-1.613c0-.55.055-1.087.139-1.614l-8.791-2.241a19.58 19.58 0 0 0-.381 3.855c0 1.32.131 2.609.381 3.855Zm37.012-7.71-8.791 2.241c.084.527.139 1.064.139 1.614s-.055 1.087-.138 1.613l8.791 2.242a19.657 19.657 0 0 0-.001-7.71Z"/><path fill="#D9D9D9" fill-opacity=".19" fill-rule="evenodd" d="M769.691 301.932c-6.205 2.341-10.618 8.334-10.618 15.358 0 7.024 4.413 13.017 10.618 15.358a16.384 16.384 0 0 1-5.791 1.051c-9.063 0-16.41-7.347-16.41-16.409 0-9.063 7.347-16.41 16.41-16.41 2.038 0 3.99.372 5.791 1.052Z" clip-rule="evenodd"/><circle cx="763.9" cy="317.29" r="14.409" stroke="#818F99" stroke-width="4"/><path fill="#D9D9D9" fill-opacity=".19" fill-rule="evenodd" d="M769.691 454.692c-6.205 2.341-10.618 8.335-10.618 15.358 0 7.024 4.413 13.017 10.618 15.358a16.362 16.362 0 0 1-5.791 1.052c-9.063 0-16.41-7.347-16.41-16.41 0-9.062 7.347-16.409 16.41-16.409 2.038 0 3.99.372 5.791 1.051Z" clip-rule="evenodd"/><circle cx="763.9" cy="470.05" r="14.409" stroke="#818F99" stroke-width="4"/><path fill="#D9D9D9" fill-opacity=".19" fill-rule="evenodd" d="M550.302 579.389c-6.205-2.341-10.618-8.334-10.618-15.358 0-7.024 4.413-13.017 10.617-15.358a16.361 16.361 0 0 0-5.791-1.051c-9.063 0-16.409 7.346-16.409 16.409 0 9.062 7.346 16.409 16.409 16.409 2.039 0 3.991-.372 5.792-1.051Z" clip-rule="evenodd"/><circle cx="544.51" cy="564.031" r="14.409" stroke="#818F99" stroke-width="4"/><path stroke="#818F99" stroke-width="2" d="M640 435v34.5m0-55.5v15m0-32v11"/><path fill="#818F99" d="M640.707 198.293a.999.999 0 0 0-1.414 0l-6.364 6.364a.999.999 0 1 0 1.414 1.414l5.657-5.657 5.657 5.657a.999.999 0 1 0 1.414-1.414l-6.364-6.364ZM639 199v192h2V199h-2Z"/><path stroke="#818F99" stroke-width="2" d="M640 436a4 4 0 0 1 0-8m0-13a4 4 0 0 1 0-8m0-9a4 4 0 0 1 0-8m-188 8a4 4 0 0 1 0-8m-31 84a4 4 0 0 1 0-8m589-213h146v230h-146z"/><path fill="#818F99" fill-opacity=".17" d="M1012 323h142v158h-142z"/><text xml:space="preserve" fill="#B8BEC3" font-family="Barlow Condensed" font-size="16" font-weight="300" letter-spacing="0em" style="white-space:pre"><tspan x="1090.22" y="397.9">%</tspan></text><text xml:space="preserve" fill="#E8EBED" font-family="Barlow Condensed" font-size="24" font-weight="500" letter-spacing="0em" style="white-space:pre"><tspan x="1071.14" y="402.1">74</tspan></text><path stroke="#818F99" stroke-width="2" d="m716.875 450.712 19.403 19.403-19.403 19.403-19.403-19.403z"/><path fill="#818F99" d="M1166.71 644.707a1 1 0 0 0 0-1.414l-6.37-6.364a.994.994 0 0 0-1.41 0 1 1 0 0 0 0 1.414l5.66 5.657-5.66 5.657a1 1 0 0 0 0 1.414.994.994 0 0 0 1.41 0l6.37-6.364ZM1147 645h19v-2h-19v2Z"/><path stroke="#818F99" stroke-width="2" d="M1100 644h18"/><text xml:space="preserve" fill="#818F99" font-family="Barlow" font-size="12" font-weight="bold" letter-spacing="1" style="white-space:pre"><tspan x="1113.9" y="669.8">DRAIN</tspan></text><path stroke="#818F99" stroke-width="2" d="M1147 636.125v16l-28-16v16l28-16Zm-14 7.876V631m0 13.001V631m-9.27 1.001h18.54m-18.54 0h18.54"/><text xml:space="preserve" fill="#818F99" font-family="Barlow" font-size="16" font-weight="bold" letter-spacing="1" style="white-space:pre"><tspan x="273.008" y="292.807">PRIMARY</tspan></text><text xml:space="preserve" fill="#818F99" font-family="Barlow" font-size="16" font-weight="bold" letter-spacing="1" style="white-space:pre"><tspan x="259.836" y="568.165">SECONDARY</tspan></text><text xml:space="preserve" fill="#818F99" font-family="Barlow" font-size="16" font-weight="bold" letter-spacing="1" style="white-space:pre"><tspan x="947.242" y="645.4">CONCENTRATE</tspan></text><text xml:space="preserve" fill="#E8EBED" font-family="Barlow" font-size="16" font-weight="500" letter-spacing="1" style="white-space:pre"><tspan x="937.117" y="576.656">20</tspan></text><text xml:space="preserve" fill="#E8EBED" font-family="Barlow" font-size="8" font-weight="500" letter-spacing="0" style="white-space:pre"><tspan x="940.238" y="558.7">PSI</tspan></text><text xml:space="preserve" fill="#E8EBED" font-family="Barlow" font-size="16" font-weight="500" letter-spacing="1" style="white-space:pre"><tspan x="377.984" y="479.617">19</tspan></text><text xml:space="preserve" fill="#E8EBED" font-family="Barlow" font-size="8" font-weight="500" letter-spacing="0" style="white-space:pre"><tspan x="381.238" y="463.7">PSI</tspan></text><text xml:space="preserve" fill="#E8EBED" font-family="Barlow" font-size="16" font-weight="500" letter-spacing="1" style="white-space:pre"><tspan x="378.984" y="205.152">19</tspan></text><text xml:space="preserve" fill="#E8EBED" font-family="Barlow" font-size="8" font-weight="500" letter-spacing="0" style="white-space:pre"><tspan x="382.238" y="189.235">PSI</tspan></text><text xml:space="preserve" fill="#EBEBEB" font-family="Barlow" font-size="24" font-weight="500" letter-spacing="0em" style="white-space:pre"><tspan x="747" y="534.459">12</tspan></text><text xml:space="preserve" fill="#EBEBEB" font-family="Barlow" font-size="8" font-weight="bold" letter-spacing="1" style="white-space:pre"><tspan x="750" y="514.028">PSI</tspan></text><path fill="#808F99" d="M740 491h48v59h-48z"/><text xml:space="preserve" fill="#EBEBEB" font-family="Barlow" font-size="24" font-weight="500" letter-spacing="0em" style="white-space:pre"><tspan x="752" y="526.163">12</tspan></text><text xml:space="preserve" fill="#EBEBEB" font-family="Barlow" font-size="8" font-weight="bold" letter-spacing="1" style="white-space:pre"><tspan x="755" y="505.731">PSI</tspan></text><text xml:space="preserve" fill="#EBEBEB" font-family="Barlow" font-size="12" font-weight="500" letter-spacing="0em" style="white-space:pre"><tspan x="750.414" y="540.597">33.6</tspan></text><text xml:space="preserve" fill="#EBEBEB" font-family="Barlow" font-size="10" font-weight="bold" letter-spacing="1" style="white-space:pre"><tspan x="776.374" y="540.641">%</tspan></text><path fill="#23303F" d="M728.353 343H798v30h-69.647z"/><text xml:space="preserve" fill="#EBEBEB" font-family="Barlow" font-size="20" font-weight="500" letter-spacing="0em" style="white-space:pre"><tspan x="745" y="366">33.65</tspan></text><text xml:space="preserve" fill="#EBEBEB" font-family="Barlow" font-size="10" font-weight="bold" letter-spacing="1" style="white-space:pre"><tspan x="793.403" y="366">%</tspan></text><path fill="#23303F" d="M1049 217h69.647v30H1049z"/><text xml:space="preserve" fill="#EBEBEB" font-family="Barlow" font-size="20" font-weight="500" letter-spacing="0em" style="white-space:pre"><tspan x="1067.14" y="240">85</tspan></text><text xml:space="preserve" fill="#EBEBEB" font-family="Barlow" font-size="10" font-weight="bold" letter-spacing="1" style="white-space:pre"><tspan x="1104.05" y="240">%</tspan></text><text xml:space="preserve" fill="#EBEBEB" font-family="Barlow" font-size="12" font-weight="500" letter-spacing="0em" style="white-space:pre"><tspan x="522.936" y="619.8">33.65</tspan></text><text xml:space="preserve" fill="#EBEBEB" font-family="Barlow" font-size="10" font-weight="bold" letter-spacing="1" style="white-space:pre"><tspan x="560.92" y="620">%</tspan></text><path fill="#23303F" d="M506 586h101v54H506z"/><text xml:space="preserve" fill="#EBEBEB" font-family="Barlow" font-size="20" font-weight="500" letter-spacing="0em" style="white-space:pre"><tspan x="511" y="609">96.1</tspan></text><text xml:space="preserve" fill="#EBEBEB" font-family="Barlow" font-size="8" font-weight="bold" letter-spacing="1" style="white-space:pre"><tspan x="557" y="609.2">GAL/MGAL</tspan></text><text xml:space="preserve" fill="#EBEBEB" font-family="Barlow" font-size="20" font-weight="500" letter-spacing="0em" style="white-space:pre"><tspan x="517.023" y="636">33.6</tspan></text><text xml:space="preserve" fill="#EBEBEB" font-family="Barlow" font-size="10" font-weight="bold" letter-spacing="1" style="white-space:pre"><tspan x="559.478" y="636">%</tspan></text><path fill="#23303F" d="M329 89h139v30H329z"/><text xml:space="preserve" fill="#E8EBED" font-family="Barlow" font-size="20" font-weight="500" letter-spacing="0em" style="white-space:pre"><tspan x="410" y="111">25</tspan></text><text xml:space="preserve" fill="#E8EBED" font-family="Barlow" font-size="20" font-weight="500" letter-spacing="0em" style="white-space:pre"><tspan x="334.938" y="111">400</tspan></text><text xml:space="preserve" fill="#E8EBED" font-family="Barlow" font-size="8" font-weight="bold" letter-spacing="1" style="white-space:pre"><tspan x="435" y="111.2">LB/MIN</tspan></text><text xml:space="preserve" fill="#E8EBED" font-family="Barlow" font-size="8" font-weight="bold" letter-spacing="1" style="white-space:pre"><tspan x="372" y="111.2">RPM</tspan></text><path fill="#23303F" d="M562 89h139v30H562z"/><text xml:space="preserve" fill="#E8EBED" font-family="Barlow" font-size="20" font-weight="500" letter-spacing="0em" style="white-space:pre"><tspan x="641" y="111">25</tspan></text><text xml:space="preserve" fill="#E8EBED" font-family="Barlow" font-size="20" font-weight="500" letter-spacing="0em" style="white-space:pre"><tspan x="565.938" y="111">400</tspan></text><text xml:space="preserve" fill="#E8EBED" font-family="Barlow" font-size="8" font-weight="bold" letter-spacing="1" style="white-space:pre"><tspan x="666" y="111.2">LB/MIN</tspan></text><text xml:space="preserve" fill="#E8EBED" font-family="Barlow" font-size="8" font-weight="bold" letter-spacing="1" style="white-space:pre"><tspan x="603" y="111.2">RPM</tspan></text><path fill="#23303F" d="M448 480h74v30h-74z"/><text xml:space="preserve" fill="#E8EBED" font-family="Barlow" font-size="20" font-weight="500" letter-spacing="0em" style="white-space:pre"><tspan x="460.742" y="502">12.6</tspan></text><text xml:space="preserve" fill="#E8EBED" font-family="Barlow" font-size="8" font-weight="bold" letter-spacing="1" style="white-space:pre"><tspan x="497.686" y="502.2">BPM</tspan></text><path fill="#23303F" d="M949 159h74v30h-74z"/><text xml:space="preserve" fill="#E8EBED" font-family="Barlow" font-size="20" font-weight="500" letter-spacing="0em" style="white-space:pre"><tspan x="966.527" y="181">41.1</tspan></text><text xml:space="preserve" fill="#E8EBED" font-family="Barlow" font-size="8" font-weight="bold" letter-spacing="1" style="white-space:pre"><tspan x="998.686" y="181.2">BPM</tspan></text><path fill="#23303F" d="M681 572h69v30h-69z"/><text xml:space="preserve" fill="#E8EBED" font-family="Barlow" font-size="20" font-weight="500" letter-spacing="0em" style="white-space:pre"><tspan x="696.125" y="594">3.9</tspan></text><text xml:space="preserve" fill="#E8EBED" font-family="Barlow" font-size="8" font-weight="bold" letter-spacing="1" style="white-space:pre"><tspan x="725.686" y="594.2">BPM</tspan></text><path fill="#23303F" d="M484.104 349h72.895v30h-72.895z"/><text xml:space="preserve" fill="#E8EBED" font-family="Barlow" font-size="20" font-weight="500" letter-spacing="0em" style="white-space:pre"><tspan x="488.127" y="371">1500</tspan></text><text xml:space="preserve" fill="#E8EBED" font-family="Barlow" font-size="8" font-weight="bold" letter-spacing="1" style="white-space:pre"><tspan x="532.702" y="371.2">RPM</tspan></text><path fill="#23303F" d="M262.104 351h72.895v30h-72.895z"/><text xml:space="preserve" fill="#E8EBED" font-family="Barlow" font-size="20" font-weight="500" letter-spacing="0em" style="white-space:pre"><tspan x="278.713" y="373">7.5</tspan></text><text xml:space="preserve" fill="#E8EBED" font-family="Barlow" font-size="8" font-weight="bold" letter-spacing="1" style="white-space:pre"><tspan x="310.702" y="373.2">PH</tspan></text></svg>