<svg width="12" height="12" viewBox="0 0 12 12" fill="none" xmlns="http://www.w3.org/2000/svg">
<path d="M11.7024 4.884L10.6315 4.75536C10.5221 4.34688 10.3618 3.96096 10.1554 3.60288L10.8211 2.75664C10.9229 2.62656 10.9114 2.42544 10.7938 2.30832L9.69024 1.20432C9.57408 1.08768 9.37248 1.0752 9.24192 1.17696L8.39424 1.84368C8.0376 1.63728 7.65168 1.47696 7.24416 1.36848L7.116 0.2976C7.09632 0.13392 6.94512 0 6.78 0H5.21904C5.05392 0 4.90272 0.13392 4.88352 0.2976L4.75488 1.36848C4.34688 1.47744 3.96048 1.63824 3.60384 1.84416L2.75664 1.1784C2.62704 1.07664 2.42544 1.08864 2.3088 1.20528L1.2048 2.30976C1.08864 2.42592 1.07664 2.62752 1.17888 2.75808L1.84416 3.6048C1.63776 3.96192 1.47744 4.34832 1.36848 4.7568L0.29808 4.88496C0.1344 4.90416 0 5.05536 0 5.22096V6.78192C0 6.94704 0.13392 7.09728 0.29808 7.11744L1.36896 7.24608C1.4784 7.65312 1.63824 8.03904 1.84464 8.39616L1.17936 9.24384C1.07808 9.37392 1.0896 9.57504 1.20672 9.69216L2.3088 10.7966C2.42544 10.9128 2.62704 10.9258 2.75664 10.824L3.60432 10.1568C3.96144 10.3632 4.34736 10.524 4.75536 10.6325L4.884 11.7029C4.90368 11.867 5.0544 12.0005 5.21952 12.0005H6.78048C6.94608 12.0005 7.0968 11.867 7.116 11.7029L7.24464 10.6325C7.65312 10.523 8.03904 10.3627 8.39568 10.1568L9.24336 10.8226C9.37344 10.9243 9.57456 10.9123 9.6912 10.7957L10.7947 9.6912C10.9118 9.57504 10.9238 9.37344 10.8216 9.2424L10.1554 8.39568C10.3622 8.03856 10.5221 7.65264 10.6315 7.24512L11.7019 7.11648C11.8661 7.0968 12 6.94704 12 6.78096V5.22C12.0005 5.05392 11.867 4.90368 11.7024 4.884ZM6.00048 9C4.34352 9 3.00048 7.65696 3.00048 6C3.00048 4.34304 4.34352 3 6.00048 3C7.65744 3 9.00048 4.34304 9.00048 6C9.00048 7.65696 7.65792 9 6.00048 9Z" fill="#E4C84C"/>
</svg>
